<svg width="1472" height="145" viewBox="0 0 1472 145" fill="none" xmlns="http://www.w3.org/2000/svg">
<path d="M1471.51 6.5437V110H1449.42V101.612H1449.14C1447.18 104.827 1441.59 112.517 1425.93 112.517C1402.44 112.517 1387.06 94.3418 1387.06 70.9942C1387.06 44.7107 1405.8 29.7515 1425.51 29.7515C1439.21 29.7515 1445.78 36.4622 1448.3 38.9787V6.5437H1471.51ZM1410.27 70.8544C1410.27 82.8777 1418.8 90.8466 1429.71 90.8466C1444.25 90.8466 1449.56 78.9631 1449.56 70.8544C1449.56 61.4874 1442.85 51.4214 1429.99 51.4214C1416.56 51.4214 1410.27 61.9068 1410.27 70.8544Z" fill="black"/>
<path d="M1307.96 110V32.4078H1329.63V40.6563H1329.91C1332.28 36.8816 1337.18 29.7515 1351.02 29.7515C1358.43 29.7515 1366.68 32.8272 1370.87 36.4621C1375.06 40.0971 1379.82 46.2485 1379.82 61.4874V110H1356.61V67.6388C1356.61 62.1864 1356.61 51.5612 1344.45 51.5612C1331.17 51.5612 1331.17 63.0252 1331.17 67.7786V110H1307.96Z" fill="black"/>
<path d="M1274.2 85.6738H1297.96C1294.19 94.3418 1288.74 101.052 1282.17 105.526C1275.73 110.14 1268.05 112.517 1260.08 112.517C1237.85 112.517 1218.97 94.4816 1218.97 71.4136C1218.97 49.7437 1236.03 29.7515 1259.66 29.7515C1283.28 29.7515 1300.62 48.4854 1300.62 72.1126C1300.62 75.1884 1300.34 76.4466 1300.06 78.2641H1241.9C1243.3 87.4913 1250.99 92.9437 1260.08 92.9437C1267.21 92.9437 1270.98 89.7282 1274.2 85.6738ZM1242.18 62.6058H1277.41C1276.43 57.9922 1271.82 49.3243 1259.8 49.3243C1247.77 49.3243 1243.16 57.9922 1242.18 62.6058Z" fill="black"/>
<path d="M1211.96 32.4078V110H1188.76V32.4078H1211.96Z" fill="black"/>
<path d="M1200.38 0C1193.75 0 1188.38 5.37258 1188.38 12C1188.38 18.6274 1193.75 24 1200.38 24C1207.01 24 1212.38 18.6274 1212.38 12C1212.38 5.37258 1207.01 0 1200.38 0Z" fill="black"/>
<path d="M1140.69 110V32.4078H1162.5V40.6563H1162.78C1164.74 36.8816 1168.79 29.7515 1182.21 29.7515V53.099C1171.45 53.3786 1163.9 55.6155 1163.9 67.3592V110H1140.69Z" fill="black"/>
<path d="M1076.68 110V6.5437H1133.16V29.7515H1101.98V47.367H1132.04V70.5748H1101.98V110H1076.68Z" fill="black"/>
<path d="M1010.58 32.4077H1035.18L996.316 135.864H971.71L984.013 106.085L955.213 32.4077H979.959L995.477 77.4252H995.757L1010.58 32.4077Z" fill="black"/>
<path d="M842.105 110V6.5437H876.078L896.629 74.6291H896.909L917.181 6.5437H951.293V110H926.967L927.806 32.5476L927.526 32.268L905.437 110H887.961L865.872 32.268L865.592 32.5476L866.431 110H842.105Z" fill="black"/>
<path d="M758.239 110V32.4078H780.048V40.6563H780.328C782.285 36.8816 786.34 29.7515 799.761 29.7515V53.099C788.996 53.3786 781.447 55.6155 781.447 67.3592V110H758.239Z" fill="black"/>
<path d="M724.618 85.6738H748.385C744.61 94.3418 739.158 101.052 732.587 105.526C726.156 110.14 718.466 112.517 710.497 112.517C688.268 112.517 669.395 94.4816 669.395 71.4136C669.395 49.7437 686.451 29.7515 710.078 29.7515C733.705 29.7515 751.041 48.4854 751.041 72.1126C751.041 75.1884 750.762 76.4466 750.482 78.2641H692.323C693.721 87.4913 701.41 92.9437 710.497 92.9437C717.628 92.9437 721.402 89.7282 724.618 85.6738ZM692.602 62.6058H727.833C726.855 57.9922 722.241 49.3243 710.218 49.3243C698.195 49.3243 693.581 57.9922 692.602 62.6058Z" fill="black"/>
<path d="M657.988 6.5437V32.4078H669.173V50.0233H657.988V110H634.781V50.0233H623.316V32.4078H634.781V6.5437H657.988Z" fill="black"/>
<path d="M618.146 32.4078V110H594.938V101.612H594.658C590.744 109.161 581.097 112.656 572.01 112.656C547.404 112.656 533.004 93.3631 533.004 71.134C533.004 45.6893 551.318 29.7515 572.01 29.7515C584.732 29.7515 591.862 35.9029 594.658 40.6563H594.938V32.4078H618.146ZM556.212 71.4136C556.212 78.6835 561.524 90.9864 575.505 90.9864C590.045 90.9864 594.938 78.6835 594.938 71.134C594.938 61.767 588.507 51.4214 575.365 51.4214C562.083 51.4214 556.212 62.6058 556.212 71.4136Z" fill="black"/>
<path d="M405.831 6.5437H432.674L446.515 73.7903H446.794L462.033 6.5437H482.305L497.264 74.0699H497.544L511.664 6.5437H538.367L510.965 110H487.757L472.239 43.033H471.959L456.441 110H432.534L405.831 6.5437Z" fill="black"/>
<path d="M367.026 32.4077V100.633C367.026 112.237 366.187 119.647 362.413 126.217C356.401 136.004 342.281 144.532 323.127 144.532C296.145 144.532 285.939 128.315 284.401 117.27H311.244C314.599 124.959 323.267 124.959 324.805 124.959C327.741 124.959 343.679 124.68 343.679 103.849V101.472H343.399C341.022 105.946 334.312 112.516 322.149 112.516C301.038 112.516 283.003 96.5786 283.003 71.6932C283.003 45.1301 302.017 29.8912 322.149 29.8912C330.817 29.8912 339.345 32.967 343.539 39.6776H343.818V32.4077H367.026ZM306.211 70.8543C306.211 83.2971 315.158 90.8466 324.805 90.8466C335.989 90.8466 343.818 82.7378 343.818 71.5534C343.818 59.1107 335.29 51.5611 324.945 51.5611C315.018 51.5611 306.211 59.5301 306.211 70.8543Z" fill="black"/>
<path d="M203.896 110V32.4078H225.565V40.6563H225.845C228.222 36.8816 233.115 29.7515 246.956 29.7515C254.365 29.7515 262.614 32.8272 266.808 36.4621C271.002 40.0971 275.756 46.2485 275.756 61.4874V110H252.548V67.6388C252.548 62.1864 252.548 51.5612 240.385 51.5612C227.103 51.5612 227.103 63.0252 227.103 67.7786V110H203.896Z" fill="black"/>
<path d="M192.693 32.4078V110H169.485V32.4078H192.693Z" fill="black"/>
<path d="M180.88 0C173.976 0 168.38 5.59644 168.38 12.5C168.38 19.4036 173.976 25 180.88 25C187.783 25 193.38 19.4036 193.38 12.5C193.38 5.59644 187.783 0 180.88 0Z" fill="black"/>
<path d="M135.724 85.6738H159.491C155.716 94.3418 150.264 101.052 143.693 105.526C137.262 110.14 129.572 112.517 121.603 112.517C99.3743 112.517 80.5005 94.4816 80.5005 71.4136C80.5005 49.7437 97.5568 29.7515 121.184 29.7515C144.811 29.7515 162.147 48.4854 162.147 72.1126C162.147 75.1884 161.867 76.4466 161.588 78.2641H103.429C104.827 87.4913 112.516 92.9437 121.603 92.9437C128.734 92.9437 132.508 89.7282 135.724 85.6738ZM103.708 62.6058H138.939C137.961 57.9922 133.347 49.3243 121.324 49.3243C109.3 49.3243 104.687 57.9922 103.708 62.6058Z" fill="black"/>
<path d="M0.74707 110V6.5437H32.6228C50.0985 6.5437 58.2073 8.22137 65.7568 16.6097C70.3704 21.3631 71.9082 27.6544 71.9082 33.666C71.9082 41.635 68.2733 49.7437 59.8849 54.4971C76.5218 60.3689 76.9413 74.2097 76.9413 78.5437C76.9413 86.7922 73.7257 95.8796 67.4345 101.052C57.9277 109.021 51.0772 110 33.6014 110H0.74707ZM26.0519 29.7515V45.8291H35.4189C39.0539 45.8291 46.6034 45.8291 46.6034 37.5806C46.6034 29.7515 39.4733 29.7515 35.4189 29.7515H26.0519ZM26.0519 67.9185V86.7923H38.4946C41.85 86.7923 51.6364 86.7922 51.6364 76.866C51.6364 67.9185 42.6888 67.9185 38.4946 67.9185H26.0519Z" fill="black"/>
</svg>
