<svg width="290" height="63" viewBox="0 0 290 63" fill="none" xmlns="http://www.w3.org/2000/svg">
<path d="M255.38 62.0738V0H289.269V13.9247H270.563V24.494H288.598V38.4186H270.563V62.0738H255.38Z" fill="black"/>
<path d="M240.38 48C244.246 48 247.38 51.134 247.38 55C247.38 58.866 244.246 62 240.38 62C236.514 62 233.38 58.866 233.38 55C233.38 51.134 236.514 48 240.38 48Z" fill="black"/>
<path d="M159.043 62.0738V0H179.427L191.758 40.8513H191.925L204.088 0H224.556V62.0738H209.96L210.464 15.6023L210.296 15.4346L197.042 62.0738H186.557L173.303 15.4346L173.135 15.6023L173.639 62.0738H159.043Z" fill="black"/>
<path d="M143.38 48C147.246 48 150.38 51.134 150.38 55C150.38 58.866 147.246 62 143.38 62C139.514 62 136.38 58.866 136.38 55C136.38 51.134 139.514 48 143.38 48Z" fill="black"/>
<path d="M61.7002 0H77.8058L86.1103 40.348H86.2781L95.4214 0H107.584L116.56 40.5157H116.728L125.2 0H141.222L124.781 62.0738H110.856L101.545 21.8936H101.377L92.066 62.0738H77.7219L61.7002 0Z" fill="black"/>
<path d="M58.3799 48C62.2459 48 65.3799 51.134 65.3799 55C65.3799 58.866 62.2459 62 58.3799 62C54.5139 62 51.3799 58.866 51.3799 55C51.3799 51.134 54.5139 48 58.3799 48Z" fill="black"/>
<path d="M0 62.0738V0H19.1254C29.6109 0 34.4761 1.0066 39.0058 6.03961C41.774 8.89165 42.6967 12.6664 42.6967 16.2734C42.6967 21.0548 40.5157 25.92 35.4827 28.772C45.4649 32.2951 45.7165 40.5996 45.7165 43.2C45.7165 48.1491 43.7872 53.6016 40.0124 56.7052C34.3084 61.4866 30.1981 62.0738 19.7126 62.0738H0ZM15.1829 13.9247V23.5713H20.8031C22.9841 23.5713 27.5138 23.5713 27.5138 18.6221C27.5138 13.9247 23.2357 13.9247 20.8031 13.9247H15.1829ZM15.1829 36.8249V48.1491H22.6485C24.6617 48.1491 30.5336 48.1491 30.5336 42.1934C30.5336 36.8249 25.165 36.8249 22.6485 36.8249H15.1829Z" fill="black"/>
</svg>
